# xmcd
#
# Track frame offsets: 
#        150
#        24908
#        57300
#        88655
#        126090
#        155735
#
# Disc length: 2552 seconds
#
# Revision: 2
# Processed by: cddbd v1.5.2PL0 Copyright (c) Steve Scherf et al.
# Submitted via: ExactAudioCopy v0.99pb4
#
DISCID=4609f606
DTITLE=Herbie Hancock - Cantaloupe Island
DYEAR=1994
DGENRE=Jazz
TTITLE0=Cantaloupe Island
TTITLE1=Watermelon Man
TTITLE2=Driftin'
TTITLE3=Blind Man, Blind Man
TTITLE4=And What If I Don't
TTITLE5=Maiden Voyage
EXTD=YEAR: 1994
EXTT0=
EXTT1=
EXTT2=
EXTT3=
EXTT4=
EXTT5=
PLAYORDER=
